<svg width="120" height="40" fill="none" xmlns="http://www.w3.org/2000/svg"><path d="M36.006 2H1v35.006h35.006V2z" fill="#D6001C"/><path d="M29.716 28.94H7.292v1.776h22.424v-1.777zM9.068 10.067h8.067V8.29H7.292v10.73h1.776v-8.954zm8.066 16.207v-9.029h-5.328v1.777h3.552v7.253h1.776zm12.579-9.029h-5.402v1.85h3.626v7.18h1.776v-9.03z" fill="#fff"/><path d="M21.648 10.067h8.067V8.29h-9.843v17.984h1.776V10.067z" fill="#fff"/><path d="M60.354 5.7l-1.776-1.85-1.85 1.85 1.85 1.85 1.776-1.85z" fill="#75787B"/><path d="M58.207 16.877c3.33 0 6.883-1.259 6.883-3.997V4.887l-3.627.962.963 6.809a15.804 15.804 0 01-3.7.444c-1.481 0-2.073-.296-2.073-1.406 0-.444 0-.962.222-3.182h-3.108c-.148 2.22-.222 3.034-.222 3.626.074 3.182 1.554 4.736 4.662 4.736zm11.769-1.704V3.036l-3.553.444.593 11.693h2.96z" fill="#75787B"/><path d="M68.495 16.431v3.479c.444.073.888.148 1.332.148 3.257 0 5.699-2.665 5.699-6.291 0-1.998-.074-3.183-.222-5.55l-3.627.591 1.184 5.477c-.814 1.702-1.998 2.072-4.366 2.146zm48.031-5.476v.592h-2.368V8.512c2.442.814 2.442.814 2.368 2.443zm-4.884.666c-1.258 0-2.073-.666-2.073-1.777 0-.888.741-1.702 2.073-1.702v3.479zm-12.508 3.626c-.592 0-1.11-.296-1.998-1.258l1.628-1.48 1.628 1.48c-.296.888-.74 1.258-1.258 1.258zm11.694-11.323l-.148 1.48c-2.147.444-3.701 2.368-3.701 4.588 0 .963.296 1.925.814 2.665h-2.294c-1.924 0-1.924 0-4.144-1.998l-2.813-2.59c-3.848 4.588-3.848 4.588-5.698 4.588h-2.961v-1.998c0-2.739-.222-3.405-2.442-4.145l-1.332-.518 4.07-.444L90.475 2l-6.808 1.406-.963 4.736 3.33 1.11c1.037.37 1.037.37 1.037 1.925v1.11c-1.258.222-2.59.37-4.144.37H80.04V3.036l-3.478.518.222 8.14c.074 2.961 1.628 4.441 4.736 4.441h1.407c2.146 0 4.218-.148 5.55-1.11.814.666 1.554 1.11 3.108 1.11h1.333c.666 0 1.48 0 2.294-.814.518 2.59 1.998 3.626 3.626 3.626 1.776 0 3.109-1.628 3.701-3.552 1.11.74 1.924.74 3.182.74h1.184c2.368 0 3.479-.296 4.811-1.48h7.03l.222-4.07c.371-4.145-2.516-4.885-8.14-6.661zM71.085 23.907l-1.406-1.333-1.702 1.48 1.702 1.555 1.406-1.332 1.48 1.332 1.703-1.554-1.703-1.48-1.48 1.332zM94.25 36.783l1.628 1.555 1.48-1.333 1.406 1.333 1.703-1.555-1.703-1.48-1.406 1.258-1.48-1.332-1.628 1.554z" fill="#75787B"/><path d="M60.205 29.678l2.22-.37.666 2.887c-2.294.444-2.812-.444-2.886-2.517zm55.802 1.185h-2.368v-4.219h-3.257v4.219h-3.034v-4.219h-3.256v4.219h-5.181v-4.44h-3.108v4.44h-3.849V26.2l-3.552.518.518 4.145h-2.368v-4.219h-3.257v4.219h-3.034v-4.219h-3.256v4.219H72.49v-4.44h-3.108v4.44h-2.739c-1.184 0-1.258 0-1.628-2.295l-.592-3.108-5.55.74c-3.923.518-5.403 2.146-5.403 6.29v5.107l3.627-.444-.74-6.956.962-.148c.37 5.18 2.072 6.068 3.33 6.068s2.516-.592 3.626-2.442c.592.592 1.184.74 1.924.74h1.036c1.629-.074 2.887-.444 3.701-1.11.814.666 1.554 1.11 3.034 1.184h.814c1.629 0 2.887-.37 3.775-.814.962.518 2.072.962 3.182.962 1.184 0 2.22-.37 3.109-.962a4.598 4.598 0 002.886 1.036c1.036 0 1.998-.37 2.738-1.11.666.592 1.258.888 2.368.888h.74c1.629-.074 2.887-.444 3.7-1.11.815.666 1.555 1.11 3.035 1.184h1.48c1.629 0 2.887-.37 3.775-.814.962.518 2.072.962 3.182.962 1.184 0 2.22-.37 3.108-.962.963.592 2.443.962 3.331.962 1.998 0 3.552-1.332 3.552-3.7v-5.477l-3.552.518.814 4.81z" fill="#75787B"/></svg>