<svg xmlns="http://www.w3.org/2000/svg" width="86.29" height="110.007" viewBox="0 0 86.29 110.007">
  <g id="logo" transform="translate(-237.208 -343.544)">
    <path id="Path_1" data-name="Path 1" d="M318.538,389.13a4.22,4.22,0,0,0,2.383-4.405,3.811,3.811,0,0,0-2.108-2.912,3.861,3.861,0,0,0,2.006-3.273,3.7,3.7,0,0,0-3.183-3.807,3.974,3.974,0,0,0,1.206-2.7,3.724,3.724,0,0,0-3.347-3.815,3.435,3.435,0,0,0,.71-1.936c.008-.082.008-.164.008-.238a3.834,3.834,0,0,0-3.577-3.831,2.406,2.406,0,0,0-.595.016,4.65,4.65,0,0,0,.18-.541,3.8,3.8,0,0,0-.517-2.9,3.725,3.725,0,0,0-4.414-1.6,3.02,3.02,0,0,0,.082-.738,3.941,3.941,0,0,0-.587-2.059,3.851,3.851,0,0,0-2.375-1.731,3.457,3.457,0,0,0-2.7.443c-.1.057-.217.115-.332.18a2.892,2.892,0,0,0-.23-1.632,4.174,4.174,0,0,0-2.683-2.149,3.794,3.794,0,0,0-3.232.591,3.962,3.962,0,0,0-1.444-2.125,3.739,3.739,0,0,0-5.033.476,3.953,3.953,0,0,0-1.313-1.665,3.387,3.387,0,0,0-2.588-.673A4.228,4.228,0,0,0,282,348.161a3.883,3.883,0,0,0-3.109-1.575,3.716,3.716,0,0,0-3.675,2.912,3.842,3.842,0,0,0-2.74-1.157,3.753,3.753,0,0,0-2.637,1.05,3.577,3.577,0,0,0-1.112,2.354,3.706,3.706,0,0,0-4.676.361,3.966,3.966,0,0,0-1.239,2.978c-.131-.033-.25-.066-.406-.107a3.782,3.782,0,0,0-2.879.574,3.974,3.974,0,0,0-2,2.428,3.668,3.668,0,0,0,0,1.649,3.884,3.884,0,0,0-2.65.591,3.773,3.773,0,0,0-1.784,3.167,3.561,3.561,0,0,0,.308,1.436,3.824,3.824,0,0,0-2.814,6.054,3.883,3.883,0,0,0-2.777,2.371,3.813,3.813,0,0,0,.857,4.061,3.734,3.734,0,0,0-1.973,2.141,3.919,3.919,0,0,0-.275,1.427,3.643,3.643,0,0,0,1.69,3.1,4.135,4.135,0,0,0-1.37,4.93,3.84,3.84,0,0,0,2.285,2.2,3.877,3.877,0,0,0-1.12,3.56,3.836,3.836,0,0,0,3.327,3.019,3.97,3.97,0,0,0-.644,2.158,4.771,4.771,0,0,0,.082.8,3.663,3.663,0,0,0,1.637,2.4,3.529,3.529,0,0,0,1.866.574c-2.182,4.373-4.188,8.622-5.985,12.683a208.963,208.963,0,0,0-7.773,20.156c-.763,2.4-1.124,4.167-.406,5,.578.673,1.8.779,4.254.377l2.1-.656c.595-.246.993-.287,1.185-.115.172.156.185.484.045.976-.316,2.56.115,4.225,1.206,4.7a2.257,2.257,0,0,0,1.891-.181,6.217,6.217,0,0,0,2-1.665c.5-.377.9-.509,1.083-.353.2.172.094.681-.3,1.395-.451,1.5-.365,2.51.246,3,.792.64,2.412.345,4.569-.828a22.475,22.475,0,0,1,12.732-2.313h.209c2.547,0,4.7,1.288,6.555,3.93a2.044,2.044,0,0,0,1.161,1.206l.008.008a1.617,1.617,0,0,0,.271.09,2.068,2.068,0,0,0,.32.025c.053,0,.111-.016.168-.016a.239.239,0,0,1,.074-.016,2.048,2.048,0,0,0,.48-.115.263.263,0,0,0,.078-.033,3.4,3.4,0,0,0,.509-.246c.016-.008.025-.025.037-.025a4.6,4.6,0,0,0,.865-.706,32.668,32.668,0,0,1,11.559-7.744,3.481,3.481,0,0,0,1.842-2.519c.057-1.009-.591-2.084-1.981-3.3-.73-1.69-.377-3.052.96-3.724,2.1-.492,3.339-1.3,3.688-2.428.328-1.026-.152-2.3-1.386-3.675a65.631,65.631,0,0,1-5.316-7.7,3.835,3.835,0,0,0,.423-.911,3.744,3.744,0,0,0,4.647.673,3.822,3.822,0,0,0,1.875-2.8,4.382,4.382,0,0,0,4.028.55,3.673,3.673,0,0,0,2.145-1.993,3.349,3.349,0,0,0,.287-1.969,4.006,4.006,0,0,0,2.994.123,3.668,3.668,0,0,0,2.346-4.545A3.768,3.768,0,0,0,314.132,406a4.024,4.024,0,0,0,.209-3,3.655,3.655,0,0,0-.48-.943,2.9,2.9,0,0,0,.533-.049,3.873,3.873,0,0,0,3.187-3.815,2.964,2.964,0,0,0-.074-.648,3.318,3.318,0,0,0-.866-1.772,3.918,3.918,0,0,0,2.547-1.591A3.712,3.712,0,0,0,318.538,389.13Z" transform="translate(0.002 -0.009)" fill="none" stroke="#fff" stroke-miterlimit="10" stroke-width="5"/>
    <g id="Group_3591" data-name="Group 3591" transform="translate(239.628 346.057)">
      <path id="Path_2" data-name="Path 2" d="M257.47,419.016c-6.333,12.084-12.711,25.8-17.043,39.271-1.6,5.037-1.009,6.161,3.823,5.357l2.092-.648c1.149-.476,1.563-.189,1.255.878-.742,6.021,2.724,5.685,5.078,2.838,1.046-.8,1.645-.468.812,1.058-1.12,3.733,1.214,4.1,4.791,2.158a22.4,22.4,0,0,1,12.736-2.322c2.748-.074,4.947,1.329,6.78,3.938.7,1.674,2.4,1.8,3.946.172a32.82,32.82,0,0,1,11.563-7.752c2.19-1.493,2.748-3.265-.148-5.775-.656-1.534-.5-3.019.968-3.757,4.336-1.017,4.713-3.4,2.3-6.087-6.9-8.466-11.645-19.918-16.149-29.328Z" transform="translate(-239.63 -367.877)" fill="#e50019" fill-rule="evenodd"/>
      <path id="Path_3" data-name="Path 3" d="M257.47,419.016c-6.333,12.084-12.711,25.8-17.043,39.271-1.6,5.037-1.009,6.161,3.823,5.357l2.092-.648c1.149-.476,1.563-.189,1.255.878-.742,6.021,2.724,5.685,5.078,2.838,1.046-.8,1.645-.468.812,1.058-1.12,3.733,1.214,4.1,4.791,2.158a22.4,22.4,0,0,1,12.736-2.322c2.748-.074,4.947,1.329,6.78,3.938.7,1.674,2.4,1.8,3.946.172a32.82,32.82,0,0,1,11.563-7.752c2.19-1.493,2.748-3.265-.148-5.775-.656-1.534-.5-3.019.968-3.757,4.336-1.017,4.713-3.4,2.3-6.087-6.9-8.466-11.645-19.918-16.149-29.328Z" transform="translate(-239.63 -367.877)" fill="none" stroke="#e50019" stroke-width="0.045"/>
      <path id="Path_4" data-name="Path 4" d="M274.261,458.237a12.77,12.77,0,0,0,.476,5.275c1.788,4.077-.09,4.98-2.194,2.921-.558-.574-1.062-1.542-2.436-.3-2.531,2.9-4.729,3.544-6.5,1.928-1.653-1.55-3.807-1.649-6.009.156-3.441,3.757-5.857,3.569-5.755.213,2.674-15.7,8.249-26.6,15.087-36.793h12.351c-1.259,6.99-3.027,13.7-4.266,20.763-.3,1.821-.574,3.971-.751,5.833" transform="translate(-243.285 -371.645)" fill="#f77e0b" fill-rule="evenodd"/>
      <path id="Path_5" data-name="Path 5" d="M274.261,458.237a12.77,12.77,0,0,0,.476,5.275c1.788,4.077-.09,4.98-2.194,2.921-.558-.574-1.062-1.542-2.436-.3-2.531,2.9-4.729,3.544-6.5,1.928-1.653-1.55-3.807-1.649-6.009.156-3.441,3.757-5.857,3.569-5.755.213,2.674-15.7,8.249-26.6,15.087-36.793h12.351c-1.259,6.99-3.027,13.7-4.266,20.763C274.709,454.225,274.438,456.375,274.261,458.237Z" transform="translate(-243.285 -371.645)" fill="none" stroke="#f77e0b" stroke-width="0.045"/>
      <path id="Path_6" data-name="Path 6" d="M289.546,440.734a52.04,52.04,0,0,0,1.842,29.459c2.039,4.5,4.126,4.233,4.889.435.435-2.084.595-3.856,2.715-4.463,4.352-.131,6.436-1.673,6.222-4.553a7.064,7.064,0,0,1,1.731-3.56c2.285-1.19,2.211-2.888,1.013-4.857a125.993,125.993,0,0,1-8.569-12.461Z" transform="translate(-254.164 -374.368)" fill="#f77e0b" fill-rule="evenodd"/>
      <path id="Path_7" data-name="Path 7" d="M289.546,440.734a52.04,52.04,0,0,0,1.842,29.459c2.039,4.5,4.126,4.233,4.889.435.435-2.084.595-3.856,2.715-4.463,4.352-.131,6.436-1.673,6.222-4.553a7.064,7.064,0,0,1,1.731-3.56c2.285-1.19,2.211-2.888,1.013-4.857a125.993,125.993,0,0,1-8.569-12.461Z" transform="translate(-254.164 -374.368)" fill="none" stroke="#f77e0b" stroke-width="0.045"/>
      <path id="Path_8" data-name="Path 8" d="M278.1,349.508a3.792,3.792,0,0,0-2.736-1.157,3.753,3.753,0,0,0-2.638,1.05,3.536,3.536,0,0,0-1.107,2.354,3.692,3.692,0,0,0-4.68.369,3.893,3.893,0,0,0-1.235,2.97c-.131-.041-.254-.066-.41-.107a3.779,3.779,0,0,0-2.88.574,3.931,3.931,0,0,0-2,2.428,3.692,3.692,0,0,0,0,1.641,3.9,3.9,0,0,0-2.654.591,3.8,3.8,0,0,0-1.78,3.175,3.531,3.531,0,0,0,.308,1.444,3.793,3.793,0,0,0-3.425,2.871,3.837,3.837,0,0,0,.611,3.167,3.832,3.832,0,0,0-1.92,6.448,3.732,3.732,0,0,0-1.973,2.133,3.962,3.962,0,0,0-.275,1.436,3.643,3.643,0,0,0,1.69,3.093,4.12,4.12,0,0,0-1.366,4.922,3.869,3.869,0,0,0,2.285,2.215,3.812,3.812,0,0,0,2.2,6.571,3.98,3.98,0,0,0-.64,2.158,4.672,4.672,0,0,0,.082.8,3.685,3.685,0,0,0,1.641,2.4,3.522,3.522,0,0,0,2.244.574,3.535,3.535,0,0,0-.291,2.1,3.878,3.878,0,0,0,1.571,2.51,4.343,4.343,0,0,0,3.355.607,2.645,2.645,0,0,0-.2,1.042v.041a3.419,3.419,0,0,0,1.333,2.658,3.81,3.81,0,0,0,4.368.787v.123a3.81,3.81,0,0,0,6.124,3,3.841,3.841,0,0,0,6.329,2.092,2.923,2.923,0,0,0,.5-.55,3.813,3.813,0,0,0,2.8,2.65,3.764,3.764,0,0,0,4.254-2.018,4.012,4.012,0,0,0,2.461,1.756,3.786,3.786,0,0,0,2.867-.492,3.543,3.543,0,0,0,1.518-2.01,3.805,3.805,0,0,0,6.522-2.133,4.415,4.415,0,0,0,4.032.55,3.692,3.692,0,0,0,2.149-1.993,3.362,3.362,0,0,0,.279-1.977,4.029,4.029,0,0,0,3,.123,3.644,3.644,0,0,0,2.342-4.528,3.776,3.776,0,0,0,4.266-1.961,3.982,3.982,0,0,0,.209-2.986,3.255,3.255,0,0,0-.484-.952,2.908,2.908,0,0,0,.537-.049,3.9,3.9,0,0,0,2.486-1.583,3.958,3.958,0,0,0,.7-2.231,2.693,2.693,0,0,0-.078-.648,3.228,3.228,0,0,0-.861-1.772,3.922,3.922,0,0,0,2.543-1.592,3.708,3.708,0,0,0-.648-5.053,4.235,4.235,0,0,0,2.387-4.405,3.821,3.821,0,0,0-2.112-2.912,3.825,3.825,0,0,0,2-3.265,3.693,3.693,0,0,0-3.179-3.815,4,4,0,0,0,1.21-2.7,3.735,3.735,0,0,0-3.351-3.823,3.4,3.4,0,0,0,.714-1.936c0-.074,0-.156,0-.238a3.819,3.819,0,0,0-3.577-3.815,2.441,2.441,0,0,0-.6,0,4.427,4.427,0,0,0,.189-.541,3.824,3.824,0,0,0-.525-2.9,3.725,3.725,0,0,0-2.4-1.706,3.6,3.6,0,0,0-2.006.115,3.072,3.072,0,0,0,.086-.738,4.009,4.009,0,0,0-.587-2.067,3.886,3.886,0,0,0-2.383-1.723,3.466,3.466,0,0,0-2.7.443c-.1.049-.209.115-.324.18a2.9,2.9,0,0,0-.234-1.633,4.209,4.209,0,0,0-2.683-2.149,3.791,3.791,0,0,0-3.232.591,3.959,3.959,0,0,0-1.444-2.133,3.756,3.756,0,0,0-5.033.476,4.056,4.056,0,0,0-1.313-1.665,3.45,3.45,0,0,0-2.584-.673,4.23,4.23,0,0,0-2.859,2.067,3.881,3.881,0,0,0-3.113-1.583,3.739,3.739,0,0,0-3.679,2.921" transform="translate(-242.525 -346.062)" fill="#fe0"/>
      <path id="Path_9" data-name="Path 9" d="M279.76,352.165a3.541,3.541,0,0,0-2.592-1.091,3.5,3.5,0,0,0-3.548,3.249,3.535,3.535,0,0,0-4.463.377,3.793,3.793,0,0,0-1.181,2.535v.139a.7.7,0,0,0,.008.131,2.562,2.562,0,0,0-.357-.107,3.61,3.61,0,0,0-2.732.541,3.419,3.419,0,0,0-1.862,2.338,2.74,2.74,0,0,0,.164,1.542,3.773,3.773,0,0,0-2.728.558,3.533,3.533,0,0,0-1.6,2.289,3.493,3.493,0,0,0-.078.73,3.253,3.253,0,0,0,.283,1.345,3.251,3.251,0,0,0-1.6.476,3.777,3.777,0,0,0-1.665,2.223,3.684,3.684,0,0,0,.558,3.027,3.732,3.732,0,0,0-2.621,2.248,3.77,3.77,0,0,0,.074,2.781,3.95,3.95,0,0,0,.767,1.091,3.585,3.585,0,0,0-.529,6.317,3.926,3.926,0,0,0-1.321,4.693,3.588,3.588,0,0,0,2.178,2.076,3.612,3.612,0,0,0,2.1,6.227,3.662,3.662,0,0,0-.554,2.814,3.476,3.476,0,0,0,1.612,2.272,3.136,3.136,0,0,0,2.092.55,3.276,3.276,0,0,0-.308,1.969,3.782,3.782,0,0,0,1.526,2.4,4.478,4.478,0,0,0,3.4.533,3.444,3.444,0,0,0-.148,1.034v.033a3.6,3.6,0,0,0,3.593,3.626,3.041,3.041,0,0,0,1.534-.361v.1a3.625,3.625,0,0,0,1.05,2.519,3.549,3.549,0,0,0,2.523,1.14,3.274,3.274,0,0,0,2.264-.82,3.526,3.526,0,0,0,3.335,2.929,3.691,3.691,0,0,0,3.1-1.427,3.635,3.635,0,0,0,6.719.591,3.769,3.769,0,0,0,2.334,1.657,3.568,3.568,0,0,0,4.192-2.371,3.567,3.567,0,0,0,4.381.64,3.607,3.607,0,0,0,1.764-2.609,3.73,3.73,0,0,0,3.495.5,3.917,3.917,0,0,0,2.346-1.911,3.528,3.528,0,0,0,.345-1.46c0-.131-.016-.287-.021-.435a.2.2,0,0,1,.037.016,3.6,3.6,0,0,0,2.781.1,3.474,3.474,0,0,0,2.207-4.274,3.608,3.608,0,0,0,3.794-5.595,3.558,3.558,0,0,0,2.859-1.534,3.6,3.6,0,0,0,.681-2.1,3.419,3.419,0,0,0-.9-2.346,3.657,3.657,0,0,0,2.445-1.526,3.61,3.61,0,0,0,.615-2.666,3.391,3.391,0,0,0-1.263-2.084,3.122,3.122,0,0,0,1.46-1.14,4.2,4.2,0,0,0,.841-3.044,3.659,3.659,0,0,0-1.989-2.789,3.629,3.629,0,0,0,1.858-3.093,3.446,3.446,0,0,0-.968-2.551,3.351,3.351,0,0,0-2.059-1.058,3.7,3.7,0,0,0,1.157-2.568A3.58,3.58,0,0,0,318,369.918a3.182,3.182,0,0,0,.673-1.813,1.4,1.4,0,0,0,.012-.213,3.519,3.519,0,0,0-.927-2.4,3.735,3.735,0,0,0-2.523-1.255c-.168,0-.369,0-.546.016a3.573,3.573,0,0,0-.3-3.24V361a3.681,3.681,0,0,0-4.176-1.542,3.676,3.676,0,0,0-.472-2.65,3.91,3.91,0,0,0-5.168-1.206c-.025.016-.062.041-.094.066,0-.033.008-.082.008-.123a3.368,3.368,0,0,0-.459-1.633,3.574,3.574,0,0,0-2.2-1.7,3.667,3.667,0,0,0-3.093.566,3.638,3.638,0,0,0-1.382-2.043,3.5,3.5,0,0,0-2.666-.673,3.464,3.464,0,0,0-2.088,1.14,3.559,3.559,0,0,0-3.655-2.01,3.8,3.8,0,0,0-2.478,1.37c-.082.131-.168.246-.267.386a3.629,3.629,0,0,0-6.436,1.214" transform="translate(-243.456 -346.99)" fill="#f77e0b"/>
      <path id="Path_10" data-name="Path 10" d="M281.859,356.353a3.286,3.286,0,0,0-5.64,1.961,3.277,3.277,0,0,0-4.061.3h-.021a3.521,3.521,0,0,0-1.058,2.584,3.286,3.286,0,0,0-2.806.4,3.335,3.335,0,0,0-1.448,2.116,2.453,2.453,0,0,0-.086.64,2.883,2.883,0,0,0,.119.812,4.191,4.191,0,0,0-2.678.476h0a3.263,3.263,0,0,0-1.276,4,3.225,3.225,0,0,0-2.937,2.486,3.327,3.327,0,0,0,.533,2.765,2.6,2.6,0,0,0-.656.181,3.265,3.265,0,0,0-1.768,1.87,3.021,3.021,0,0,0-.238,1.214,3.56,3.56,0,0,0,.263,1.3,2.517,2.517,0,0,0,.726.992,3.357,3.357,0,0,0-1.764,1.854,3.246,3.246,0,0,0,1.267,3.946,3.27,3.27,0,0,0-1.464,2.765,4.078,4.078,0,0,0,.254,1.37,3.438,3.438,0,0,0,1.813,2,1.8,1.8,0,0,1,.189.074,3.308,3.308,0,0,0-.98,3.085,3.421,3.421,0,0,0,1.452,2.108,3.085,3.085,0,0,0,1.477.5,3.374,3.374,0,0,0-.533,2.551,3.249,3.249,0,0,0,3.351,2.617,2.96,2.96,0,0,0-.2,1.829,3.27,3.27,0,0,0,1.678,2.158,3.324,3.324,0,0,0,2.789.492,3.39,3.39,0,0,0,.8,3.281,3.221,3.221,0,0,0,3.761.689,3.375,3.375,0,0,0,.935,2.412h.008a3.284,3.284,0,0,0,4.409.262,2.977,2.977,0,0,0,.726,1.559,3.243,3.243,0,0,0,2.305,1.1,3.435,3.435,0,0,0,2.473-.861,3.1,3.1,0,0,0,.365-.435,3.391,3.391,0,0,0,4.988,1.854,3.1,3.1,0,0,0,1.161-1.345,3.284,3.284,0,0,0,2.112,1.509A3.171,3.171,0,0,0,296,415.7a2.934,2.934,0,0,0,1.493.927,3.414,3.414,0,0,0,2.58-.328,3.468,3.468,0,0,0,1.612-2.412,3.653,3.653,0,0,0,.636.394,3.261,3.261,0,0,0,2.531.049,3.494,3.494,0,0,0,2.194-1.747,2.893,2.893,0,0,0,.291-1.28c0-.1-.012-.205-.016-.32a3.768,3.768,0,0,0,2.6.008,3.292,3.292,0,0,0,2.133-3.035,3.862,3.862,0,0,0-.115-.886,3.269,3.269,0,0,0,3.446-5.078,2.813,2.813,0,0,0,.5-.049,3.168,3.168,0,0,0,2.145-1.386,3.22,3.22,0,0,0,.558-2.5,2.933,2.933,0,0,0-.751-1.551,3.445,3.445,0,0,0,2.194-1.37,3.371,3.371,0,0,0,.587-1.936,3.188,3.188,0,0,0-1.116-2.461,3.818,3.818,0,0,0,2.071-3.823,3.6,3.6,0,0,0-1.838-2.56,2.879,2.879,0,0,0,.677-.492,3.251,3.251,0,0,0,.98-2.313v-.14a3.236,3.236,0,0,0-.878-2.248,2.978,2.978,0,0,0-1.813-.944,3.258,3.258,0,0,0,.989-2.305v-.131a3.269,3.269,0,0,0-.911-2.256,2.885,2.885,0,0,0-1.936-.943,3.03,3.03,0,0,0,.628-1.641,2.274,2.274,0,0,0,.012-.23,3.332,3.332,0,0,0-.853-2.207,3.265,3.265,0,0,0-2.318-1.132,2.628,2.628,0,0,0-.509,0,3.055,3.055,0,0,0,.234-1.173,3.42,3.42,0,0,0-.5-1.8,3.289,3.289,0,0,0-3.827-1.378,3.168,3.168,0,0,0,.07-.648,3.3,3.3,0,0,0-.517-1.772,3.443,3.443,0,0,0-2.2-1.477,3.4,3.4,0,0,0-2.527.369c-.037.025-.066.057-.094.074a3.259,3.259,0,0,0-2.432-3.2,3.3,3.3,0,0,0-2.814.517,3.54,3.54,0,0,0-1.247-1.854,3.4,3.4,0,0,0-2.469-.607,3.049,3.049,0,0,0-1.883,1.05,3.253,3.253,0,0,0-3.351-1.854,3.352,3.352,0,0,0-2.252,1.239c-.09.115-.164.238-.238.345a3.3,3.3,0,0,0-2.715-1.337,3.221,3.221,0,0,0-3.175,2.486" transform="translate(-244.779 -348.318)" fill="#fff"/>
      <path id="Path_11" data-name="Path 11" d="M289,358.776a3.094,3.094,0,0,0-2.437-1.14,3.057,3.057,0,0,0-2.986,2.182,3.113,3.113,0,0,0-2.149-.837,3.055,3.055,0,0,0-3.031,2.609,3.124,3.124,0,0,0-3.716.41,3.2,3.2,0,0,0-1,2.281,3.17,3.17,0,0,0-2.576.41,3.041,3.041,0,0,0-1.308,3.216,3.115,3.115,0,0,0-2.067.5,3.052,3.052,0,0,0-1.251,3.642,3.487,3.487,0,0,0-1.551.509,2.942,2.942,0,0,0-1.456,1.829l0,.008a2.913,2.913,0,0,0,.365,2.313,1.764,1.764,0,0,0,.107.172,3.079,3.079,0,0,0-2.186,1.87,3.167,3.167,0,0,0,.611,3.265,3.056,3.056,0,0,0-1.505,1.665,3.276,3.276,0,0,0,.074,2.486,2.628,2.628,0,0,0,.968,1.165,3.058,3.058,0,0,0-1.218,2.469,3.731,3.731,0,0,0,1.953,3.232v.016a3.2,3.2,0,0,0-.8,2.838,2.993,2.993,0,0,0,1.313,1.944,2.583,2.583,0,0,0,1.276.492,2.925,2.925,0,0,0-.447,2.281,3.142,3.142,0,0,0,1.382,1.9,3.509,3.509,0,0,0,1.993.574,2.974,2.974,0,0,0-.172,1.55,3.292,3.292,0,0,0,1.292,2.084,3.205,3.205,0,0,0,2.354.525.374.374,0,0,1,.1-.033,3,3,0,0,0-.09.689,3.2,3.2,0,0,0,.865,2.215,3.109,3.109,0,0,0,3.487.73,3.211,3.211,0,0,0,.89,2.133,3.067,3.067,0,0,0,2.2.952,2.844,2.844,0,0,0,1.8-.574,3.075,3.075,0,0,0,2.843,2.346,3.13,3.13,0,0,0,2.334-.829,2.2,2.2,0,0,0,.242-.23,4.868,4.868,0,0,0,.267.558,3.1,3.1,0,0,0,2,1.4h.012a3.089,3.089,0,0,0,3.368-1.526,3.31,3.31,0,0,0,1.916,1.329l.012.008a3.079,3.079,0,0,0,3.536-1.928,3.1,3.1,0,0,0,5.14-1.452,1,1,0,0,0,.053-.246,3.165,3.165,0,0,0,2.871.377A3.093,3.093,0,0,0,306.675,410a3.909,3.909,0,0,0,2.642.057,3.062,3.062,0,0,0,1.985-3.511,2.623,2.623,0,0,0,1.46-.1,3.307,3.307,0,0,0,1.866-1.6,3.452,3.452,0,0,0,.332-1.4,2.874,2.874,0,0,0-.16-.935,2.025,2.025,0,0,0-.32-.673,1.7,1.7,0,0,1,.275-.025,3.31,3.31,0,0,0,2.051-1.313,3.177,3.177,0,0,0,.566-1.821,3.558,3.558,0,0,0-.045-.517,2.856,2.856,0,0,0-.615-1.354,3.223,3.223,0,0,0,2.519-3.126,3.851,3.851,0,0,0-.98-2.477,3.172,3.172,0,0,0,1.793-3.3,3.359,3.359,0,0,0-1.19-2.084,3.94,3.94,0,0,0-.377-.221,4.252,4.252,0,0,0,.484-.377,3.305,3.305,0,0,0,.943-2.215v-.156a3.073,3.073,0,0,0-.8-2.092,2.885,2.885,0,0,0-1.575-.861,3.315,3.315,0,0,0,.841-2.051,3.224,3.224,0,0,0-.861-2.231,2.962,2.962,0,0,0-1.678-.878,3.071,3.071,0,0,0,.48-1.624,3.112,3.112,0,0,0-.8-2.092,3.358,3.358,0,0,0-2.182-1.066h-.353a3.224,3.224,0,0,0,.164-1.017,3.329,3.329,0,0,0-.455-1.641h0a3.286,3.286,0,0,0-1.977-1.427,2.837,2.837,0,0,0-1.46.066,3.085,3.085,0,0,0-.422-2.166,3.527,3.527,0,0,0-4.463-1.034,3.056,3.056,0,0,0-2.285-2.838,3.2,3.2,0,0,0-2.547.4,3.027,3.027,0,0,0-1.153-1.6,3.176,3.176,0,0,0-2.35-.591,2.885,2.885,0,0,0-1.669.9,3.089,3.089,0,0,0-3.105-1.641h-.008a3.166,3.166,0,0,0-2.248,1.4" transform="translate(-245.908 -349.432)" fill="#e50019"/>
      <rect id="Rectangle_1" data-name="Rectangle 1" width="8.93" height="2.523" transform="translate(46.589 42.059)" fill="#fff"/>
      <path id="Path_12" data-name="Path 12" d="M302.446,392.266a1.428,1.428,0,1,1,0,2.855,1.428,1.428,0,0,1,0-2.855" transform="translate(-257.988 -359.868)" fill="#fff"/>
      <path id="Path_13" data-name="Path 13" d="M316.224,398.3a4.753,4.753,0,0,0-4.947-4.52c-4.27,0-4.66,4.381-4.66,4.381h-2.059v-2.223h-2.941l-.012,2.264h-2.966v-2.264h-3.048v2.223H279.418s.176-4.545-4.348-4.249c-5.115.312-3.363,6.317-3.363,6.317l5.468-.049s-.41,2.543-5.48,3.577c.012.057-.012,1.7-.012,1.985,7.613-1.583,7.736-5.554,7.736-5.554l27.4.033a4.992,4.992,0,0,0,4.955,3.224c4.959-.722,4.455-5.144,4.455-5.144m-38.533.025c-.562.008-2.305-.025-2.986-.025H273.29c-.021-2.658,2.166-2.42,2.166-2.42,2.3-.008,2.235,2.445,2.235,2.445m33.508,2.986a2.739,2.739,0,0,1-2.531-2.871,2.687,2.687,0,0,1,2.744-2.494,2.737,2.737,0,0,1,2.646,2.518,2.637,2.637,0,0,1-2.859,2.847" transform="translate(-249.133 -360.332)" fill="#fff"/>
    </g>
  </g>
</svg>
